<mxfile host="app.diagrams.net" modified="2023-11-07T17:37:11.281Z" agent="Mozilla/5.0 (Macintosh; Intel Mac OS X 10_15_7) AppleWebKit/537.36 (KHTML, like Gecko) Chrome/119.0.0.0 Safari/537.36" etag="4guyGl2Hs_ZKX2_FiXW5" version="22.0.8" type="google">
  <diagram name="Page-1" id="thtvU6LQ7k_HWhXy6Xc_">
    <mxGraphModel grid="1" page="1" gridSize="10" guides="1" tooltips="1" connect="1" arrows="1" fold="1" pageScale="1" pageWidth="850" pageHeight="1100" math="0" shadow="0">
      <root>
        <mxCell id="0" />
        <mxCell id="1" parent="0" />
        <mxCell id="O33-iWWHB2jfo4bJD5ny-1" value="referenced filepaths" style="html=1;rounded=0;shadow=0;comic=0;labelBackgroundColor=none;strokeWidth=2;fontFamily=Verdana;fontSize=12;align=center;shape=mxgraph.ios7ui.horLines;" vertex="1" parent="1">
          <mxGeometry x="890" y="-1090" width="140" height="30" as="geometry" />
        </mxCell>
        <mxCell id="O33-iWWHB2jfo4bJD5ny-2" value="filepaths" style="html=1;rounded=0;shadow=0;comic=0;labelBackgroundColor=none;strokeWidth=2;fontFamily=Verdana;fontSize=12;align=center;shape=mxgraph.ios7ui.horLines;" vertex="1" parent="1">
          <mxGeometry x="1570" y="-1090" width="140" height="30" as="geometry" />
        </mxCell>
        <mxCell id="O33-iWWHB2jfo4bJD5ny-5" value="test&amp;nbsp; &amp;nbsp;referenced metadata" style="html=1;dashed=0;whiteSpace=wrap;shape=mxgraph.dfd.dataStoreID;align=left;spacingLeft=3;points=[[0,0],[0.5,0],[1,0],[0,0.5],[1,0.5],[0,1],[0.5,1],[1,1]];" vertex="1" parent="1">
          <mxGeometry x="550" y="-570" width="150" height="30" as="geometry" />
        </mxCell>
        <mxCell id="O33-iWWHB2jfo4bJD5ny-6" value="train&amp;nbsp; referenced X" style="html=1;dashed=0;whiteSpace=wrap;shape=mxgraph.dfd.dataStoreID;align=left;spacingLeft=3;points=[[0,0],[0.5,0],[1,0],[0,0.5],[1,0.5],[0,1],[0.5,1],[1,1]];fontStyle=0" vertex="1" parent="1">
          <mxGeometry x="750" y="75" width="150" height="30" as="geometry" />
        </mxCell>
        <mxCell id="O33-iWWHB2jfo4bJD5ny-36" value="SensorGeoreferencer" style="swimlane;fontStyle=1;align=center;verticalAlign=top;childLayout=stackLayout;horizontal=1;startSize=26;horizontalStack=0;resizeParent=1;resizeParentMax=0;resizeLast=0;collapsible=1;marginBottom=0;whiteSpace=wrap;html=1;" vertex="1" parent="1">
          <mxGeometry x="1150" y="-720" width="350" height="130" as="geometry">
            <mxRectangle x="1320" y="217.5" width="180" height="30" as="alternateBounds" />
          </mxGeometry>
        </mxCell>
        <mxCell id="O33-iWWHB2jfo4bJD5ny-37" value="+ crs: str" style="text;strokeColor=none;fillColor=none;align=left;verticalAlign=top;spacingLeft=4;spacingRight=4;overflow=hidden;rotatable=0;points=[[0,0.5],[1,0.5]];portConstraint=eastwest;whiteSpace=wrap;html=1;" vertex="1" parent="O33-iWWHB2jfo4bJD5ny-36">
          <mxGeometry y="26" width="350" height="26" as="geometry" />
        </mxCell>
        <mxCell id="O33-iWWHB2jfo4bJD5ny-38" value="" style="line;strokeWidth=1;fillColor=none;align=left;verticalAlign=middle;spacingTop=-1;spacingLeft=3;spacingRight=3;rotatable=0;labelPosition=right;points=[];portConstraint=eastwest;strokeColor=inherit;" vertex="1" parent="O33-iWWHB2jfo4bJD5ny-36">
          <mxGeometry y="52" width="350" height="8" as="geometry" />
        </mxCell>
        <mxCell id="O33-iWWHB2jfo4bJD5ny-39" value="+ fit(metadata, geotransforms)&lt;br&gt;+ predict(metadata): (geotransforms, distance_error)&lt;br&gt;+ transform(metdata): X&lt;br&gt;+ score(metadata, geotransforms)" style="text;strokeColor=none;fillColor=none;align=left;verticalAlign=top;spacingLeft=4;spacingRight=4;overflow=hidden;rotatable=0;points=[[0,0.5],[1,0.5]];portConstraint=eastwest;whiteSpace=wrap;html=1;" vertex="1" parent="O33-iWWHB2jfo4bJD5ny-36">
          <mxGeometry y="60" width="350" height="70" as="geometry" />
        </mxCell>
        <mxCell id="O33-iWWHB2jfo4bJD5ny-46" value="MetadataPreprocesser" style="swimlane;fontStyle=1;align=center;verticalAlign=top;childLayout=stackLayout;horizontal=1;startSize=26;horizontalStack=0;resizeParent=1;resizeParentMax=0;resizeLast=0;collapsible=1;marginBottom=0;whiteSpace=wrap;html=1;" vertex="1" parent="1">
          <mxGeometry x="1090" y="-1060" width="440" height="86" as="geometry">
            <mxRectangle x="1160" y="20" width="180" height="30" as="alternateBounds" />
          </mxGeometry>
        </mxCell>
        <mxCell id="O33-iWWHB2jfo4bJD5ny-47" value="+ crs: str" style="text;strokeColor=none;fillColor=none;align=left;verticalAlign=top;spacingLeft=4;spacingRight=4;overflow=hidden;rotatable=0;points=[[0,0.5],[1,0.5]];portConstraint=eastwest;whiteSpace=wrap;html=1;" vertex="1" parent="O33-iWWHB2jfo4bJD5ny-46">
          <mxGeometry y="26" width="440" height="26" as="geometry" />
        </mxCell>
        <mxCell id="O33-iWWHB2jfo4bJD5ny-48" value="" style="line;strokeWidth=1;fillColor=none;align=left;verticalAlign=middle;spacingTop=-1;spacingLeft=3;spacingRight=3;rotatable=0;labelPosition=right;points=[];portConstraint=eastwest;strokeColor=inherit;" vertex="1" parent="O33-iWWHB2jfo4bJD5ny-46">
          <mxGeometry y="52" width="440" height="8" as="geometry" />
        </mxCell>
        <mxCell id="O33-iWWHB2jfo4bJD5ny-49" value="+ fit_transform(filepaths, None): nitelite.metadata (filepaths, sensor_coords)" style="text;strokeColor=none;fillColor=none;align=left;verticalAlign=top;spacingLeft=4;spacingRight=4;overflow=hidden;rotatable=0;points=[[0,0.5],[1,0.5]];portConstraint=eastwest;whiteSpace=wrap;html=1;" vertex="1" parent="O33-iWWHB2jfo4bJD5ny-46">
          <mxGeometry y="60" width="440" height="26" as="geometry" />
        </mxCell>
        <mxCell id="O33-iWWHB2jfo4bJD5ny-50" value="metadata_prep" style="html=1;whiteSpace=wrap;" vertex="1" parent="1">
          <mxGeometry x="1250" y="-960" width="110" height="50" as="geometry" />
        </mxCell>
        <mxCell id="O33-iWWHB2jfo4bJD5ny-51" value="fit_transform" style="shape=ellipse;html=1;dashed=0;whiteSpace=wrap;aspect=fixed;perimeter=ellipsePerimeter;" vertex="1" parent="1">
          <mxGeometry x="940" y="-950" width="90" height="90" as="geometry" />
        </mxCell>
        <mxCell id="O33-iWWHB2jfo4bJD5ny-52" value="referenced metadata" style="html=1;rounded=0;shadow=0;comic=0;labelBackgroundColor=none;strokeWidth=2;fontFamily=Verdana;fontSize=12;align=center;shape=mxgraph.ios7ui.horLines;" vertex="1" parent="1">
          <mxGeometry x="900" y="-814" width="140" height="30" as="geometry" />
        </mxCell>
        <mxCell id="O33-iWWHB2jfo4bJD5ny-53" value="fit_transform" style="shape=ellipse;html=1;dashed=0;whiteSpace=wrap;aspect=fixed;perimeter=ellipsePerimeter;" vertex="1" parent="1">
          <mxGeometry x="1590" y="-960" width="90" height="90" as="geometry" />
        </mxCell>
        <mxCell id="O33-iWWHB2jfo4bJD5ny-54" value="metadata" style="html=1;rounded=0;shadow=0;comic=0;labelBackgroundColor=none;strokeWidth=2;fontFamily=Verdana;fontSize=12;align=center;shape=mxgraph.ios7ui.horLines;" vertex="1" parent="1">
          <mxGeometry x="1565" y="-724" width="140" height="30" as="geometry" />
        </mxCell>
        <mxCell id="O33-iWWHB2jfo4bJD5ny-57" value="fit_transform" style="shape=ellipse;html=1;dashed=0;whiteSpace=wrap;aspect=fixed;perimeter=ellipsePerimeter;" vertex="1" parent="1">
          <mxGeometry x="950" y="-754" width="90" height="90" as="geometry" />
        </mxCell>
        <mxCell id="O33-iWWHB2jfo4bJD5ny-63" value="train_test_split" style="shape=ellipse;html=1;dashed=0;whiteSpace=wrap;aspect=fixed;perimeter=ellipsePerimeter;" vertex="1" parent="1">
          <mxGeometry x="660" y="-700" width="90" height="90" as="geometry" />
        </mxCell>
        <mxCell id="O33-iWWHB2jfo4bJD5ny-64" value="sensor_georef_test" style="html=1;whiteSpace=wrap;" vertex="1" parent="1">
          <mxGeometry x="640" y="-500" width="130" height="40" as="geometry" />
        </mxCell>
        <mxCell id="O33-iWWHB2jfo4bJD5ny-65" value="fit" style="shape=ellipse;html=1;dashed=0;whiteSpace=wrap;aspect=fixed;perimeter=ellipsePerimeter;" vertex="1" parent="1">
          <mxGeometry x="790" y="-510" width="60" height="60" as="geometry" />
        </mxCell>
        <mxCell id="O33-iWWHB2jfo4bJD5ny-67" value="score" style="shape=ellipse;html=1;dashed=0;whiteSpace=wrap;aspect=fixed;perimeter=ellipsePerimeter;" vertex="1" parent="1">
          <mxGeometry x="550" y="-510" width="60" height="60" as="geometry" />
        </mxCell>
        <mxCell id="O33-iWWHB2jfo4bJD5ny-69" value="sensor_georef" style="html=1;whiteSpace=wrap;" vertex="1" parent="1">
          <mxGeometry x="1260" y="-560" width="130" height="40" as="geometry" />
        </mxCell>
        <mxCell id="O33-iWWHB2jfo4bJD5ny-70" value="referenced X" style="html=1;rounded=0;shadow=0;comic=0;labelBackgroundColor=none;strokeWidth=2;fontFamily=Verdana;fontSize=12;align=center;shape=mxgraph.ios7ui.horLines;" vertex="1" parent="1">
          <mxGeometry x="940" y="-600" width="140" height="30" as="geometry" />
        </mxCell>
        <mxCell id="O33-iWWHB2jfo4bJD5ny-72" value="transform" style="shape=ellipse;html=1;dashed=0;whiteSpace=wrap;aspect=fixed;perimeter=ellipsePerimeter;" vertex="1" parent="1">
          <mxGeometry x="1565" y="-560" width="60" height="60" as="geometry" />
        </mxCell>
        <mxCell id="O33-iWWHB2jfo4bJD5ny-74" value="X" style="html=1;rounded=0;shadow=0;comic=0;labelBackgroundColor=none;strokeWidth=2;fontFamily=Verdana;fontSize=12;align=center;shape=mxgraph.ios7ui.horLines;" vertex="1" parent="1">
          <mxGeometry x="1587.5" y="-390" width="140" height="30" as="geometry" />
        </mxCell>
        <mxCell id="O33-iWWHB2jfo4bJD5ny-75" value="ReferencedMosaic" style="swimlane;fontStyle=1;align=center;verticalAlign=top;childLayout=stackLayout;horizontal=1;startSize=26;horizontalStack=0;resizeParent=1;resizeParentMax=0;resizeLast=0;collapsible=1;marginBottom=0;whiteSpace=wrap;html=1;" vertex="1" parent="1">
          <mxGeometry x="1165" y="-460" width="350" height="100" as="geometry">
            <mxRectangle x="1320" y="217.5" width="180" height="30" as="alternateBounds" />
          </mxGeometry>
        </mxCell>
        <mxCell id="O33-iWWHB2jfo4bJD5ny-76" value="+ crs: str" style="text;strokeColor=none;fillColor=none;align=left;verticalAlign=top;spacingLeft=4;spacingRight=4;overflow=hidden;rotatable=0;points=[[0,0.5],[1,0.5]];portConstraint=eastwest;whiteSpace=wrap;html=1;" vertex="1" parent="O33-iWWHB2jfo4bJD5ny-75">
          <mxGeometry y="26" width="350" height="26" as="geometry" />
        </mxCell>
        <mxCell id="O33-iWWHB2jfo4bJD5ny-77" value="" style="line;strokeWidth=1;fillColor=none;align=left;verticalAlign=middle;spacingTop=-1;spacingLeft=3;spacingRight=3;rotatable=0;labelPosition=right;points=[];portConstraint=eastwest;strokeColor=inherit;" vertex="1" parent="O33-iWWHB2jfo4bJD5ny-75">
          <mxGeometry y="52" width="350" height="8" as="geometry" />
        </mxCell>
        <mxCell id="O33-iWWHB2jfo4bJD5ny-78" value="+ fit(X, y=None, mosaic=None)&lt;br&gt;+ predict(X): mosaic_dataset" style="text;strokeColor=none;fillColor=none;align=left;verticalAlign=top;spacingLeft=4;spacingRight=4;overflow=hidden;rotatable=0;points=[[0,0.5],[1,0.5]];portConstraint=eastwest;whiteSpace=wrap;html=1;" vertex="1" parent="O33-iWWHB2jfo4bJD5ny-75">
          <mxGeometry y="60" width="350" height="40" as="geometry" />
        </mxCell>
        <mxCell id="O33-iWWHB2jfo4bJD5ny-80" value="reffed_mosaic" style="html=1;whiteSpace=wrap;" vertex="1" parent="1">
          <mxGeometry x="1270" y="-340" width="130" height="40" as="geometry" />
        </mxCell>
        <mxCell id="O33-iWWHB2jfo4bJD5ny-81" value="fit_transform" style="shape=ellipse;html=1;dashed=0;whiteSpace=wrap;aspect=fixed;perimeter=ellipsePerimeter;" vertex="1" parent="1">
          <mxGeometry x="1040" y="-340" width="80" height="80" as="geometry" />
        </mxCell>
        <mxCell id="O33-iWWHB2jfo4bJD5ny-90" value="referenced mosaic" style="html=1;rounded=0;shadow=0;comic=0;labelBackgroundColor=none;strokeWidth=2;fontFamily=Verdana;fontSize=12;align=center;shape=mxgraph.ios7ui.horLines;" vertex="1" parent="1">
          <mxGeometry x="1000" y="-210" width="140" height="30" as="geometry" />
        </mxCell>
        <mxCell id="O33-iWWHB2jfo4bJD5ny-92" value="MosaicGeoreferencer" style="swimlane;fontStyle=1;align=center;verticalAlign=top;childLayout=stackLayout;horizontal=1;startSize=26;horizontalStack=0;resizeParent=1;resizeParentMax=0;resizeLast=0;collapsible=1;marginBottom=0;whiteSpace=wrap;html=1;" vertex="1" parent="1">
          <mxGeometry x="1170" y="-240" width="350" height="130" as="geometry">
            <mxRectangle x="1320" y="217.5" width="180" height="30" as="alternateBounds" />
          </mxGeometry>
        </mxCell>
        <mxCell id="O33-iWWHB2jfo4bJD5ny-93" value="+ crs: str" style="text;strokeColor=none;fillColor=none;align=left;verticalAlign=top;spacingLeft=4;spacingRight=4;overflow=hidden;rotatable=0;points=[[0,0.5],[1,0.5]];portConstraint=eastwest;whiteSpace=wrap;html=1;" vertex="1" parent="O33-iWWHB2jfo4bJD5ny-92">
          <mxGeometry y="26" width="350" height="26" as="geometry" />
        </mxCell>
        <mxCell id="O33-iWWHB2jfo4bJD5ny-94" value="" style="line;strokeWidth=1;fillColor=none;align=left;verticalAlign=middle;spacingTop=-1;spacingLeft=3;spacingRight=3;rotatable=0;labelPosition=right;points=[];portConstraint=eastwest;strokeColor=inherit;" vertex="1" parent="O33-iWWHB2jfo4bJD5ny-92">
          <mxGeometry y="52" width="350" height="8" as="geometry" />
        </mxCell>
        <mxCell id="O33-iWWHB2jfo4bJD5ny-95" value="+ fit(X, y=None, mosaic)&lt;br&gt;+ predict(X): geotransforms&lt;br&gt;+ transform(X): X&lt;br&gt;+ side effect: mosaic" style="text;strokeColor=none;fillColor=none;align=left;verticalAlign=top;spacingLeft=4;spacingRight=4;overflow=hidden;rotatable=0;points=[[0,0.5],[1,0.5]];portConstraint=eastwest;whiteSpace=wrap;html=1;" vertex="1" parent="O33-iWWHB2jfo4bJD5ny-92">
          <mxGeometry y="60" width="350" height="70" as="geometry" />
        </mxCell>
        <mxCell id="O33-iWWHB2jfo4bJD5ny-102" value="LessReferencedMosaic" style="swimlane;fontStyle=1;align=center;verticalAlign=top;childLayout=stackLayout;horizontal=1;startSize=26;horizontalStack=0;resizeParent=1;resizeParentMax=0;resizeLast=0;collapsible=1;marginBottom=0;whiteSpace=wrap;html=1;" vertex="1" parent="1">
          <mxGeometry x="1215" y="-90" width="285" height="110" as="geometry">
            <mxRectangle x="1320" y="217.5" width="180" height="30" as="alternateBounds" />
          </mxGeometry>
        </mxCell>
        <mxCell id="O33-iWWHB2jfo4bJD5ny-103" value="+ crs: str" style="text;strokeColor=none;fillColor=none;align=left;verticalAlign=top;spacingLeft=4;spacingRight=4;overflow=hidden;rotatable=0;points=[[0,0.5],[1,0.5]];portConstraint=eastwest;whiteSpace=wrap;html=1;" vertex="1" parent="O33-iWWHB2jfo4bJD5ny-102">
          <mxGeometry y="26" width="285" height="26" as="geometry" />
        </mxCell>
        <mxCell id="O33-iWWHB2jfo4bJD5ny-104" value="" style="line;strokeWidth=1;fillColor=none;align=left;verticalAlign=middle;spacingTop=-1;spacingLeft=3;spacingRight=3;rotatable=0;labelPosition=right;points=[];portConstraint=eastwest;strokeColor=inherit;" vertex="1" parent="O33-iWWHB2jfo4bJD5ny-102">
          <mxGeometry y="52" width="285" height="8" as="geometry" />
        </mxCell>
        <mxCell id="O33-iWWHB2jfo4bJD5ny-105" value="+ fit(X, y=None, mosaic=None)&lt;br&gt;+ predict(X): mosaic&lt;br&gt;+ side effect: geotransforms" style="text;strokeColor=none;fillColor=none;align=left;verticalAlign=top;spacingLeft=4;spacingRight=4;overflow=hidden;rotatable=0;points=[[0,0.5],[1,0.5]];portConstraint=eastwest;whiteSpace=wrap;html=1;" vertex="1" parent="O33-iWWHB2jfo4bJD5ny-102">
          <mxGeometry y="60" width="285" height="50" as="geometry" />
        </mxCell>
        <mxCell id="O33-iWWHB2jfo4bJD5ny-108" value="mosaic_to&lt;br&gt;mosaic_score" style="shape=ellipse;html=1;dashed=0;whiteSpace=wrap;aspect=fixed;perimeter=ellipsePerimeter;" vertex="1" parent="1">
          <mxGeometry x="245" y="280" width="95" height="95" as="geometry" />
        </mxCell>
        <mxCell id="O33-iWWHB2jfo4bJD5ny-110" value="fit_transform" style="shape=ellipse;html=1;dashed=0;whiteSpace=wrap;aspect=fixed;perimeter=ellipsePerimeter;" vertex="1" parent="1">
          <mxGeometry x="1570" y="30" width="90" height="90" as="geometry" />
        </mxCell>
        <mxCell id="O33-iWWHB2jfo4bJD5ny-111" value="now-referenced X" style="html=1;rounded=0;shadow=0;comic=0;labelBackgroundColor=none;strokeWidth=2;fontFamily=Verdana;fontSize=12;align=center;shape=mxgraph.ios7ui.horLines;" vertex="1" parent="1">
          <mxGeometry x="1560" y="165" width="140" height="30" as="geometry" />
        </mxCell>
        <mxCell id="O33-iWWHB2jfo4bJD5ny-116" value="recalced_mosaic (ReferencedMosaic)" style="html=1;whiteSpace=wrap;" vertex="1" parent="1">
          <mxGeometry x="1440" y="250" width="130" height="40" as="geometry" />
        </mxCell>
        <mxCell id="O33-iWWHB2jfo4bJD5ny-117" value="fit" style="shape=ellipse;html=1;dashed=0;whiteSpace=wrap;aspect=fixed;perimeter=ellipsePerimeter;" vertex="1" parent="1">
          <mxGeometry x="1610" y="240" width="60" height="60" as="geometry" />
        </mxCell>
        <mxCell id="O33-iWWHB2jfo4bJD5ny-118" value="predict" style="shape=ellipse;html=1;dashed=0;whiteSpace=wrap;aspect=fixed;perimeter=ellipsePerimeter;" vertex="1" parent="1">
          <mxGeometry x="1545" y="310" width="60" height="60" as="geometry" />
        </mxCell>
        <mxCell id="O33-iWWHB2jfo4bJD5ny-121" value="GeoPreprocesser" style="swimlane;fontStyle=1;align=center;verticalAlign=top;childLayout=stackLayout;horizontal=1;startSize=26;horizontalStack=0;resizeParent=1;resizeParentMax=0;resizeLast=0;collapsible=1;marginBottom=0;whiteSpace=wrap;html=1;" vertex="1" parent="1">
          <mxGeometry x="1105" y="-900" width="440" height="86" as="geometry">
            <mxRectangle x="1160" y="20" width="180" height="30" as="alternateBounds" />
          </mxGeometry>
        </mxCell>
        <mxCell id="O33-iWWHB2jfo4bJD5ny-122" value="+ crs: str" style="text;strokeColor=none;fillColor=none;align=left;verticalAlign=top;spacingLeft=4;spacingRight=4;overflow=hidden;rotatable=0;points=[[0,0.5],[1,0.5]];portConstraint=eastwest;whiteSpace=wrap;html=1;" vertex="1" parent="O33-iWWHB2jfo4bJD5ny-121">
          <mxGeometry y="26" width="440" height="26" as="geometry" />
        </mxCell>
        <mxCell id="O33-iWWHB2jfo4bJD5ny-123" value="" style="line;strokeWidth=1;fillColor=none;align=left;verticalAlign=middle;spacingTop=-1;spacingLeft=3;spacingRight=3;rotatable=0;labelPosition=right;points=[];portConstraint=eastwest;strokeColor=inherit;" vertex="1" parent="O33-iWWHB2jfo4bJD5ny-121">
          <mxGeometry y="52" width="440" height="8" as="geometry" />
        </mxCell>
        <mxCell id="O33-iWWHB2jfo4bJD5ny-124" value="+ fit_transform(metadata, None): X (metadata, geotransforms, distance_error)" style="text;strokeColor=none;fillColor=none;align=left;verticalAlign=top;spacingLeft=4;spacingRight=4;overflow=hidden;rotatable=0;points=[[0,0.5],[1,0.5]];portConstraint=eastwest;whiteSpace=wrap;html=1;" vertex="1" parent="O33-iWWHB2jfo4bJD5ny-121">
          <mxGeometry y="60" width="440" height="26" as="geometry" />
        </mxCell>
        <mxCell id="O33-iWWHB2jfo4bJD5ny-125" value="geo_prep" style="html=1;whiteSpace=wrap;" vertex="1" parent="1">
          <mxGeometry x="1260" y="-790" width="110" height="50" as="geometry" />
        </mxCell>
        <mxCell id="O33-iWWHB2jfo4bJD5ny-126" value="fit" style="shape=ellipse;html=1;dashed=0;whiteSpace=wrap;aspect=fixed;perimeter=ellipsePerimeter;" vertex="1" parent="1">
          <mxGeometry x="1105" y="-555" width="50" height="50" as="geometry" />
        </mxCell>
        <mxCell id="O33-iWWHB2jfo4bJD5ny-128" value="mosaic_to&lt;br&gt;images_score" style="shape=ellipse;html=1;dashed=0;whiteSpace=wrap;aspect=fixed;perimeter=ellipsePerimeter;" vertex="1" parent="1">
          <mxGeometry x="410" y="280" width="95" height="95" as="geometry" />
        </mxCell>
        <mxCell id="O33-iWWHB2jfo4bJD5ny-129" value="mosaic_georeferencer_test" style="html=1;whiteSpace=wrap;" vertex="1" parent="1">
          <mxGeometry x="640" y="145" width="190" height="40" as="geometry" />
        </mxCell>
        <mxCell id="O33-iWWHB2jfo4bJD5ny-130" value="referenced X" style="html=1;rounded=0;shadow=0;comic=0;labelBackgroundColor=none;strokeWidth=2;fontFamily=Verdana;fontSize=12;align=center;shape=mxgraph.ios7ui.horLines;" vertex="1" parent="1">
          <mxGeometry x="650" y="-90" width="140" height="30" as="geometry" />
        </mxCell>
        <mxCell id="O33-iWWHB2jfo4bJD5ny-131" value="train_test_split" style="shape=ellipse;html=1;dashed=0;whiteSpace=wrap;aspect=fixed;perimeter=ellipsePerimeter;" vertex="1" parent="1">
          <mxGeometry x="675" y="-35" width="90" height="90" as="geometry" />
        </mxCell>
        <mxCell id="O33-iWWHB2jfo4bJD5ny-132" value="test&amp;nbsp; &amp;nbsp;referenced X" style="html=1;dashed=0;whiteSpace=wrap;shape=mxgraph.dfd.dataStoreID;align=left;spacingLeft=3;points=[[0,0],[0.5,0],[1,0],[0,0.5],[1,0.5],[0,1],[0.5,1],[1,1]];" vertex="1" parent="1">
          <mxGeometry x="545" y="75" width="150" height="30" as="geometry" />
        </mxCell>
        <mxCell id="O33-iWWHB2jfo4bJD5ny-134" value="train&amp;nbsp; referenced metadata" style="html=1;dashed=0;whiteSpace=wrap;shape=mxgraph.dfd.dataStoreID;align=left;spacingLeft=3;points=[[0,0],[0.5,0],[1,0],[0,0.5],[1,0.5],[0,1],[0.5,1],[1,1]];fontStyle=0" vertex="1" parent="1">
          <mxGeometry x="745" y="-570" width="150" height="30" as="geometry" />
        </mxCell>
        <mxCell id="O33-iWWHB2jfo4bJD5ny-135" value="referenced metadata" style="html=1;rounded=0;shadow=0;comic=0;labelBackgroundColor=none;strokeWidth=2;fontFamily=Verdana;fontSize=12;align=center;shape=mxgraph.ios7ui.horLines;" vertex="1" parent="1">
          <mxGeometry x="635" y="-760" width="140" height="30" as="geometry" />
        </mxCell>
        <mxCell id="O33-iWWHB2jfo4bJD5ny-136" value="referenced X" style="html=1;rounded=0;shadow=0;comic=0;labelBackgroundColor=none;strokeWidth=2;fontFamily=Verdana;fontSize=12;align=center;shape=mxgraph.ios7ui.horLines;" vertex="1" parent="1">
          <mxGeometry x="410" y="-380" width="140" height="30" as="geometry" />
        </mxCell>
        <mxCell id="O33-iWWHB2jfo4bJD5ny-137" value="test_reffed_mosaic" style="html=1;whiteSpace=wrap;" vertex="1" parent="1">
          <mxGeometry x="410" y="-320" width="130" height="40" as="geometry" />
        </mxCell>
        <mxCell id="O33-iWWHB2jfo4bJD5ny-138" value="mosaic_to&lt;br&gt;images_score" style="shape=ellipse;html=1;dashed=0;whiteSpace=wrap;aspect=fixed;perimeter=ellipsePerimeter;" vertex="1" parent="1">
          <mxGeometry x="215" y="-185" width="95" height="95" as="geometry" />
        </mxCell>
        <mxCell id="O33-iWWHB2jfo4bJD5ny-140" value="referenced mosaic" style="html=1;rounded=0;shadow=0;comic=0;labelBackgroundColor=none;strokeWidth=2;fontFamily=Verdana;fontSize=12;align=center;shape=mxgraph.ios7ui.horLines;" vertex="1" parent="1">
          <mxGeometry x="285" y="-235" width="140" height="30" as="geometry" />
        </mxCell>
        <mxCell id="O33-iWWHB2jfo4bJD5ny-141" value="referenced X" style="html=1;rounded=0;shadow=0;comic=0;labelBackgroundColor=none;strokeWidth=2;fontFamily=Verdana;fontSize=12;align=center;shape=mxgraph.ios7ui.horLines;" vertex="1" parent="1">
          <mxGeometry x="115" y="-235" width="140" height="30" as="geometry" />
        </mxCell>
        <mxCell id="O33-iWWHB2jfo4bJD5ny-142" value="fit" style="shape=ellipse;html=1;dashed=0;whiteSpace=wrap;aspect=fixed;perimeter=ellipsePerimeter;" vertex="1" parent="1">
          <mxGeometry x="860" y="135" width="60" height="60" as="geometry" />
        </mxCell>
        <mxCell id="O33-iWWHB2jfo4bJD5ny-143" value="predict" style="shape=ellipse;html=1;dashed=0;whiteSpace=wrap;aspect=fixed;perimeter=ellipsePerimeter;" vertex="1" parent="1">
          <mxGeometry x="540" y="135" width="60" height="60" as="geometry" />
        </mxCell>
        <mxCell id="O33-iWWHB2jfo4bJD5ny-144" value="referenced mosaic 2" style="html=1;rounded=0;shadow=0;comic=0;labelBackgroundColor=none;strokeWidth=2;fontFamily=Verdana;fontSize=12;align=center;shape=mxgraph.ios7ui.horLines;" vertex="1" parent="1">
          <mxGeometry x="470" y="220" width="140" height="30" as="geometry" />
        </mxCell>
        <mxCell id="O33-iWWHB2jfo4bJD5ny-146" value="referenced mosaic" style="html=1;rounded=0;shadow=0;comic=0;labelBackgroundColor=none;strokeWidth=2;fontFamily=Verdana;fontSize=12;align=center;shape=mxgraph.ios7ui.horLines;" vertex="1" parent="1">
          <mxGeometry x="160" y="220" width="140" height="30" as="geometry" />
        </mxCell>
        <mxCell id="O33-iWWHB2jfo4bJD5ny-147" value="referenced X" style="html=1;rounded=0;shadow=0;comic=0;labelBackgroundColor=none;strokeWidth=2;fontFamily=Verdana;fontSize=12;align=center;shape=mxgraph.ios7ui.horLines;" vertex="1" parent="1">
          <mxGeometry x="317.5" y="220" width="140" height="30" as="geometry" />
        </mxCell>
        <mxCell id="O33-iWWHB2jfo4bJD5ny-148" value="fit" style="shape=ellipse;html=1;dashed=0;whiteSpace=wrap;aspect=fixed;perimeter=ellipsePerimeter;" vertex="1" parent="1">
          <mxGeometry x="560" y="-330" width="60" height="60" as="geometry" />
        </mxCell>
        <mxCell id="O33-iWWHB2jfo4bJD5ny-149" value="predict" style="shape=ellipse;html=1;dashed=0;whiteSpace=wrap;aspect=fixed;perimeter=ellipsePerimeter;" vertex="1" parent="1">
          <mxGeometry x="320" y="-330" width="60" height="60" as="geometry" />
        </mxCell>
        <mxCell id="O33-iWWHB2jfo4bJD5ny-150" value="mosaic-to-images score" style="html=1;rounded=0;shadow=0;comic=0;labelBackgroundColor=none;strokeWidth=2;fontFamily=Verdana;fontSize=12;align=center;shape=mxgraph.ios7ui.horLines;" vertex="1" parent="1">
          <mxGeometry x="182.5" y="-65" width="160" height="30" as="geometry" />
        </mxCell>
        <mxCell id="O33-iWWHB2jfo4bJD5ny-151" value="mosaic-to-mosaic score" style="html=1;rounded=0;shadow=0;comic=0;labelBackgroundColor=none;strokeWidth=2;fontFamily=Verdana;fontSize=12;align=center;shape=mxgraph.ios7ui.horLines;" vertex="1" parent="1">
          <mxGeometry x="200" y="390" width="160" height="30" as="geometry" />
        </mxCell>
        <mxCell id="O33-iWWHB2jfo4bJD5ny-152" value="mosaic-to-images score" style="html=1;rounded=0;shadow=0;comic=0;labelBackgroundColor=none;strokeWidth=2;fontFamily=Verdana;fontSize=12;align=center;shape=mxgraph.ios7ui.horLines;" vertex="1" parent="1">
          <mxGeometry x="395" y="390" width="160" height="30" as="geometry" />
        </mxCell>
        <mxCell id="O33-iWWHB2jfo4bJD5ny-154" value="mosaic_georeferencer" style="html=1;whiteSpace=wrap;" vertex="1" parent="1">
          <mxGeometry x="1290" y="45" width="130" height="40" as="geometry" />
        </mxCell>
        <mxCell id="O33-iWWHB2jfo4bJD5ny-156" value="referenced X 2" style="html=1;rounded=0;shadow=0;comic=0;labelBackgroundColor=none;strokeWidth=2;fontFamily=Verdana;fontSize=12;align=center;shape=mxgraph.ios7ui.horLines;" vertex="1" parent="1">
          <mxGeometry x="635" y="220" width="140" height="30" as="geometry" />
        </mxCell>
        <mxCell id="O33-iWWHB2jfo4bJD5ny-157" value="score" style="shape=ellipse;html=1;dashed=0;whiteSpace=wrap;aspect=fixed;perimeter=ellipsePerimeter;" vertex="1" parent="1">
          <mxGeometry x="810" y="220" width="60" height="60" as="geometry" />
        </mxCell>
        <mxCell id="O33-iWWHB2jfo4bJD5ny-158" value="" style="line;strokeWidth=1;fillColor=none;align=left;verticalAlign=middle;spacingTop=-1;spacingLeft=3;spacingRight=3;rotatable=0;labelPosition=right;points=[];portConstraint=eastwest;strokeColor=inherit;" vertex="1" parent="1">
          <mxGeometry x="1150" y="-500" width="380" height="12" as="geometry" />
        </mxCell>
        <mxCell id="O33-iWWHB2jfo4bJD5ny-159" value="" style="line;strokeWidth=1;fillColor=none;align=left;verticalAlign=middle;spacingTop=-1;spacingLeft=3;spacingRight=3;rotatable=0;labelPosition=right;points=[];portConstraint=eastwest;strokeColor=inherit;" vertex="1" parent="1">
          <mxGeometry x="1145" y="-272" width="380" height="12" as="geometry" />
        </mxCell>
        <mxCell id="O33-iWWHB2jfo4bJD5ny-160" value="" style="line;strokeWidth=1;fillColor=none;align=left;verticalAlign=middle;spacingTop=-1;spacingLeft=3;spacingRight=3;rotatable=0;labelPosition=right;points=[];portConstraint=eastwest;strokeColor=inherit;" vertex="1" parent="1">
          <mxGeometry x="1155" y="93" width="380" height="12" as="geometry" />
        </mxCell>
      </root>
    </mxGraphModel>
  </diagram>
</mxfile>
